<?xml version="1.0" encoding="UTF-8"?><svg id="menu" xmlns="http://www.w3.org/2000/svg" viewBox="0 0 1792 1792"><defs><style>.cls-1{fill-rule:evenodd;}</style></defs><path id="_パス_3" class="cls-1" d="m896.14,160.6c119.33-4.49,238.82-1.18,357.72,9.91,57.67-.73,114.97,9.38,168.92,29.79,74.43,34.67,134.25,94.49,168.92,168.92,20.42,53.94,30.53,111.24,29.79,168.92,0,89.45,9.91,119.24,9.91,357.72,4.49,119.33,1.18,238.82-9.91,357.72.73,57.67-9.38,114.97-29.79,168.92-34.67,74.43-94.49,134.24-168.92,168.92-53.94,20.42-111.24,30.53-168.92,29.79-89.45,0-119.24,9.91-357.72,9.91-119.33,4.49-238.82,1.18-357.72-9.91-57.67.73-114.97-9.38-168.92-29.79-74.43-34.67-134.25-94.49-168.92-168.92-20.41-53.95-30.52-111.24-29.79-168.92,0-89.45-9.91-119.24-9.91-357.72-4.49-119.31-1.18-238.78,9.91-357.65-.73-57.67,9.38-114.97,29.79-168.92,17.41-36.86,41.01-70.46,69.77-99.36,23.26-34.83,58.7-59.71,99.36-69.77,53.89-20.32,111.12-30.35,168.71-29.58,118.9-11.09,238.39-14.4,357.72-9.91m0-158.94c-122.63-4.41-245.41-1.12-367.63,9.84-74.68-.16-148.76,13.32-218.6,39.77-60.31,19.66-114.9,53.77-159.01,99.36-45.59,44.11-79.7,98.7-99.36,159.01-31.21,68.43-44.88,143.56-39.77,218.6C.8,650.52-2.51,773.3,1.87,895.93c-4.38,122.63-1.07,245.41,9.91,367.63-.16,74.68,13.32,148.76,39.77,218.6,19.64,60.36,53.75,115,99.36,159.15,44.09,45.58,98.65,79.69,158.94,99.36,69.84,26.45,143.92,39.93,218.6,39.77,122.22,10.98,245,14.29,367.63,9.91,122.63,4.38,245.41,1.07,367.63-9.91,74.68.16,148.76-13.32,218.6-39.77,121.16-41.79,216.36-137,258.16-258.16,26.45-69.84,39.93-143.92,39.77-218.6,0-99.36,9.91-129.15,9.91-367.63,4.38-122.63,1.07-245.41-9.91-367.63.16-74.68-13.32-148.76-39.77-218.6-19.49-60.39-53.45-115.11-98.94-159.36-44.17-45.62-98.83-79.73-159.22-99.36-69.84-26.45-143.92-39.93-218.6-39.77C1141.51.59,1018.75-2.72,896.14,1.66m0,437.19c-248.32-4.12-452.96,193.84-457.08,442.16-.08,4.97-.08,9.94,0,14.92,0,252.44,204.64,457.08,457.08,457.08s457.08-204.64,457.08-457.08-204.64-457.08-457.08-457.08h0m0,755.14c-161.82,2.8-295.27-126.11-298.07-287.93-.06-3.38-.06-6.76,0-10.13-2.8-161.82,126.11-295.27,287.93-298.07,3.38-.06,6.76-.06,10.13,0,161.82-2.8,295.27,126.11,298.07,287.93.06,3.38.06,6.76,0,10.13,2.8,161.82-126.11,295.27-287.93,298.07-3.38.06-6.76.06-10.13,0m476.89-884.29c-60.34,0-109.26,48.92-109.26,109.26s48.92,109.26,109.26,109.26,109.26-48.92,109.26-109.26c-.53-60.12-49.14-108.73-109.26-109.26"/></svg>