<?xml version="1.0" encoding="UTF-8"?><svg id="menu" xmlns="http://www.w3.org/2000/svg" viewBox="0 0 1792 1792"><defs><style>.cls-1{fill:#000;stroke-width:0px;}</style></defs><path class="cls-1" d="M1598.03,493.67c-7.56-41.89-26.19-80.97-54.07-113.15l-257.2-298.33C1241.54,29.93,1175.88-.07,1106.82,0H369.6C270.58,0,190.32,80.16,190.06,179.19v1433.23c0,99.18,80.39,179.58,179.55,179.58h1052.79c99.16,0,179.55-80.4,179.55-179.58V535.43c0-14.18-1.3-28.33-3.78-42.3M1130.4,154.64c112.45,115.76,218.9,237.25,318.96,363.98h-210.17c-61.24-1.53-109.71-51.98-108.93-113.15l.13-250.84ZM1450.67,1612.42c0,15.84-12.9,28.68-28.67,28.68H369.6c-15.77,0-28.67-12.84-28.67-28.68V179.19c0-15.85,12.9-28.69,28.67-28.69h609.91v254.97c-.78,144.42,115.18,262.36,259.68,264.04h211.86l-.39,942.9Z"/></svg>